name GIL11_slow2.mot
datacolumns 153
datarows 4
range 0.91666657 0.94166654
endheader

                time	           pelvis_tx	           pelvis_ty	           pelvis_tz	         pelvis_tilt	         pelvis_list	     pelvis_rotation	       hip_flexion_r	     hip_adduction_r	      hip_rotation_r	        knee_angle_r	       ankle_angle_r	    subtalar_angle_r	         mtp_angle_r	       hip_flexion_l	     hip_adduction_l	      hip_rotation_l	        knee_angle_l	       ankle_angle_l	    subtalar_angle_l	         mtp_angle_l	    lumbar_extension	      lumbar_bending	     lumbar_rotation	     ground_force_vx	     ground_force_vy	     ground_force_vz	     ground_force_px	     ground_force_py	     ground_force_pz	     ground_force_vx	     ground_force_vy	     ground_force_vz	     ground_force_px	     ground_force_py	     ground_force_pz	     ground_torque_x	     ground_torque_y	     ground_torque_z	     ground_torque_x	     ground_torque_y	     ground_torque_z	    ground_marker_px	    ground_marker_py	    ground_marker_pz	    ground_marker_px	    ground_marker_py	    ground_marker_pz	    ground_marker_px	    ground_marker_py	    ground_marker_pz	    ground_marker_px	    ground_marker_py	    ground_marker_pz	    ground_marker_px	    ground_marker_py	    ground_marker_pz	    ground_marker_px	    ground_marker_py	    ground_marker_pz	    ground_marker_px	    ground_marker_py	    ground_marker_pz	    ground_marker_px	    ground_marker_py	    ground_marker_pz	    ground_marker_px	    ground_marker_py	    ground_marker_pz	    ground_marker_px	    ground_marker_py	    ground_marker_pz	    ground_marker_px	    ground_marker_py	    ground_marker_pz	    ground_marker_px	    ground_marker_py	    ground_marker_pz	    ground_marker_px	    ground_marker_py	    ground_marker_pz	    ground_marker_px	    ground_marker_py	    ground_marker_pz	    ground_marker_px	    ground_marker_py	    ground_marker_pz	    ground_marker_px	    ground_marker_py	    ground_marker_pz	    ground_marker_px	    ground_marker_py	    ground_marker_pz	    ground_marker_px	    ground_marker_py	    ground_marker_pz	    ground_marker_px	    ground_marker_py	    ground_marker_pz	    ground_marker_px	    ground_marker_py	    ground_marker_pz	    ground_marker_px	    ground_marker_py	    ground_marker_pz	    ground_marker_px	    ground_marker_py	    ground_marker_pz	    ground_marker_px	    ground_marker_py	    ground_marker_pz	    ground_marker_px	    ground_marker_py	    ground_marker_pz	    ground_marker_px	    ground_marker_py	    ground_marker_pz	    ground_marker_px	    ground_marker_py	    ground_marker_pz	    ground_marker_px	    ground_marker_py	    ground_marker_pz	    ground_marker_px	    ground_marker_py	    ground_marker_pz	    ground_marker_px	    ground_marker_py	    ground_marker_pz	    ground_marker_px	    ground_marker_py	    ground_marker_pz	    ground_marker_px	    ground_marker_py	    ground_marker_pz	    ground_marker_px	    ground_marker_py	    ground_marker_pz	    ground_marker_px	    ground_marker_py	    ground_marker_pz	    ground_marker_px	    ground_marker_py	    ground_marker_pz	    ground_marker_px	    ground_marker_py	    ground_marker_pz	    ground_marker_px	    ground_marker_py	    ground_marker_pz	    ground_marker_px	    ground_marker_py	    ground_marker_pz	
          0.91666657	          1.98665595	          0.86277282	         -0.26780012	         -5.55184746	         -5.44516230	          5.67944288	         18.71363831	          3.11964035	         10.46768570	         -0.27112284	        -10.09891415	          0.00000000	          0.00000000	         -9.01768875	         -7.59871817	         12.16316128	        -24.69348717	         -5.43235540	          0.00000000	          0.00000000	          1.60206819	          0.93684196	         -4.31785440	        -68.61994637	        470.35540378	        -27.66994779	          2.07213086	          0.00000000	         -0.18975534	         29.18717201	        105.83049412	         -2.42930157	          1.62646118	          0.00000000	         -0.33686783	          0.00000000	          0.00156696	          0.00000000	          0.00000000	          0.08385522	          0.00000000	          1.91242146	          0.81360149	         -0.24839169	          1.90715098	          0.79620004	         -0.17715286	          1.88351297	          0.78705275	         -0.32715410	          1.98831999	          0.43294740	         -0.18560064	          1.78132772	          0.41502863	         -0.34342611	          2.06815028	          0.06580246	         -0.19499581	          1.54605961	          0.14113264	         -0.32145083	          1.98665595	          0.86277282	         -0.26780012	          2.00122142	          0.86990976	         -0.15033455	          1.97209060	          0.85563588	         -0.38526571	          1.79516268	          0.93065232	         -0.21293300	          1.78798866	          0.92390054	         -0.26663682	          2.00619912	          0.43566087	         -0.13049187	          1.78803825	          0.41570508	         -0.40103266	          1.96726966	          0.42607439	         -0.23199803	          1.81370687	          0.41656759	         -0.27897739	          2.05940366	          0.06290452	         -0.15607157	          1.53108919	          0.15112570	         -0.35717234	          2.07326531	          0.07653079	         -0.22881049	          1.56101012	          0.14183745	         -0.29867834	          1.84357476	          1.36124194	         -0.25102347	          1.97667575	          1.30554008	         -0.20709822	          1.97164142	          1.30027330	         -0.31423721	          1.97070086	          1.29929042	         -0.25986749	          2.01408529	          1.23210764	         -0.26236108	          2.10045242	          0.59156656	         -0.23453616	          1.86194313	          0.54114467	         -0.48208362	          2.04613972	          0.63147169	         -0.16188663	          1.81360042	          0.59736300	         -0.42038265	          2.05138183	          0.54348516	         -0.16022857	          1.80619967	          0.51018792	         -0.41100273	          2.04368997	          0.13994434	         -0.08324511	          1.69932795	          0.17547922	         -0.33330256	          2.03980947	          0.14810692	         -0.12564503	          1.66478062	          0.20141904	         -0.33617333	          2.17310452	          0.04258773	         -0.17112562	          1.60123074	          0.04986166	         -0.35144264	
          0.92499989	          1.99474072	          0.86452419	         -0.26559928	         -5.41110611	         -5.63245773	          5.30534887	         18.11387444	          3.71275711	         10.67030716	         -0.42864382	         -9.71580029	          0.00000000	          0.00000000	         -8.49069595	         -8.20446873	         11.98229218	        -26.41981125	         -7.64439392	          0.00000000	          0.00000000	          1.81432104	          1.30366969	         -4.04746532	        -67.72030588	        478.83710104	        -30.00614914	          2.07350562	          0.00000000	         -0.18930380	         19.24068403	         73.32043388	         -2.39486658	          1.62991785	          0.00000000	         -0.33719043	          0.00000000	         -0.10523541	          0.00000000	          0.00000000	          0.08237033	          0.00000000	          1.92180085	          0.81621659	         -0.24709289	          1.91496825	          0.79816496	         -0.17503044	          1.89214242	          0.78818524	         -0.32510442	          1.99306393	          0.43409163	         -0.18453386	          1.79400778	          0.41428822	         -0.34446579	          2.06871009	          0.06588683	         -0.19505364	          1.55403984	          0.14557928	         -0.32224321	          1.99474072	          0.86452419	         -0.26559928	          2.00864124	          0.87228465	         -0.14834143	          1.98084021	          0.85676372	         -0.38285711	          1.80300546	          0.93199873	         -0.21268371	          1.79600847	          0.92488772	         -0.26636833	          2.01095414	          0.43649039	         -0.12941413	          1.80095410	          0.41544625	         -0.40203670	          1.97443259	          0.42801979	         -0.23005882	          1.82858312	          0.41472197	         -0.28091338	          2.06001043	          0.06298713	         -0.15611899	          1.53903937	          0.15603304	         -0.35781997	          2.07396746	          0.07643672	         -0.22885634	          1.56951451	          0.14591628	         -0.29950029	          1.85036576	          1.36228251	         -0.24949668	          1.98362744	          1.30732918	         -0.20548797	          1.97869289	          1.30224276	         -0.31277156	          1.97774553	          1.30113399	         -0.25839102	          2.02149844	          1.23422348	         -0.26093686	          2.10717773	          0.59327984	         -0.23327410	          1.87384808	          0.54195112	         -0.48238629	          2.05356359	          0.63326877	         -0.15987015	          1.82519662	          0.59691912	         -0.42024535	          2.05901694	          0.54533267	         -0.15865037	          1.81918263	          0.50985676	         -0.41185847	          2.04532790	          0.14000803	         -0.08304793	          1.70807493	          0.17664893	         -0.33495581	          2.04162717	          0.14810328	         -0.12559342	          1.67408085	          0.20349829	         -0.33778310	          2.17347288	          0.04215118	         -0.17157699	          1.60407412	          0.05087372	         -0.35135174	
          0.93333322	          2.00266194	          0.86626613	         -0.26337698	         -5.26046371	         -5.76423597	          4.95272017	         17.49324226	          4.24162436	         10.70748425	         -0.54619080	         -9.40077972	          0.00000000	          0.00000000	         -7.91288042	         -8.74087238	         11.65538788	        -28.19926071	         -9.87074852	          0.00000000	          0.00000000	          1.74636066	          1.44021261	         -3.68135333	        -67.07214139	        486.51896073	        -31.64959824	          2.07480542	          0.00000000	         -0.18897443	         10.72512620	         50.24413119	         -1.67942517	          1.63520691	          0.00000000	         -0.33864288	          0.00000000	         -0.18552905	          0.00000000	          0.00000000	          0.05024780	          0.00000000	          1.93084693	          0.81851667	         -0.24609128	          1.92263734	          0.80001175	         -0.17295390	          1.90061963	          0.78935587	         -0.32310209	          1.99765217	          0.43513703	         -0.18350239	          1.80703163	          0.41354185	         -0.34547356	          2.06941271	          0.06595931	         -0.19504166	          1.56268823	          0.14987917	         -0.32296136	          2.00266194	          0.86626613	         -0.26337698	          2.01591063	          0.87452912	         -0.14626469	          1.98941338	          0.85800308	         -0.38048926	          1.81080568	          0.93320149	         -0.21229725	          1.80391836	          0.92581284	         -0.26602611	          2.01537704	          0.43718565	         -0.12831515	          1.81403005	          0.41522497	         -0.40302518	          1.98129463	          0.42945033	         -0.22800536	          1.84407771	          0.41340107	         -0.28153935	          2.06052113	          0.06301554	         -0.15615360	          1.54765928	          0.16078186	         -0.35839102	          2.07432699	          0.07656741	         -0.22885786	          1.57862663	          0.14976729	         -0.30020568	          1.85762644	          1.36372364	         -0.24781764	          1.99064231	          1.30893171	         -0.20424911	          1.98562980	          1.30370557	         -0.31110474	          1.98473060	          1.30290520	         -0.25695574	          2.02847242	          1.23575330	         -0.25941539	          2.11400485	          0.59444612	         -0.23158355	          1.88542640	          0.54283732	         -0.48271284	          2.06076431	          0.63450277	         -0.15781924	          1.83613884	          0.59627986	         -0.42024034	          2.06615949	          0.54669881	         -0.15671769	          1.83190000	          0.50844634	         -0.41205892	          2.04636884	          0.13994101	         -0.08290757	          1.71733391	          0.17781535	         -0.33654889	          2.04266310	          0.14802724	         -0.12533164	          1.68357503	          0.20514527	         -0.33908793	          2.17381930	          0.04169485	         -0.17196648	          1.60740864	          0.05214543	         -0.35120162	
          0.94166654	          2.01042676	          0.86796772	         -0.26117402	         -5.09783363	         -5.83198786	          4.63286161	         16.84933472	          4.68934822	         10.57523251	         -0.62482786	         -9.14400578	          0.00000000	          0.00000000	         -7.29239511	         -9.19207859	         11.21178913	        -30.02294159	        -12.05524826	          0.00000000	          0.00000000	          1.82885492	          1.44605112	         -3.48545051	        -66.45298914	        493.73605523	        -32.39328092	          2.07604810	          0.00000000	         -0.18878851	          4.19489711	         35.85398253	         -0.67431575	          1.64121826	          0.00000000	         -0.34093921	          0.00000000	         -0.23501843	          0.00000000	          0.00000000	          0.00357246	          0.00000000	          1.93845570	          0.81918788	         -0.24521449	          1.93017995	          0.80169100	         -0.17096461	          1.90894377	          0.79054546	         -0.32118982	          2.00209546	          0.43607479	         -0.18252234	          1.82035458	          0.41281784	         -0.34643838	          2.07024789	          0.06599507	         -0.19499120	          1.57193744	          0.15402800	         -0.32358602	          2.01042676	          0.86796772	         -0.26117402	          2.02305317	          0.87659043	         -0.14414036	          1.99780047	          0.85934496	         -0.37820768	          1.81851184	          0.93424159	         -0.21174252	          1.81167209	          0.92667365	         -0.26559201	          2.01947951	          0.43774578	         -0.12721406	          1.82723808	          0.41505012	         -0.40398520	          1.98645496	          0.43172824	         -0.22803487	          1.85955226	          0.41337118	         -0.28167623	          2.06094217	          0.06297465	         -0.15620610	          1.55689704	          0.16534907	         -0.35887933	          2.07453704	          0.07680929	         -0.22884350	          1.58815861	          0.15327381	         -0.30091944	          1.86435604	          1.36479044	         -0.24649495	          1.99741161	          1.31091237	         -0.20334195	          1.99261260	          1.30545318	         -0.30945075	          1.99167299	          1.30456126	         -0.25555670	          2.03576016	          1.23784935	         -0.25791839	          2.12085438	          0.59496367	         -0.22946237	          1.89668643	          0.54378390	         -0.48302853	          2.06783247	          0.63521272	         -0.15533546	          1.84659755	          0.59627098	         -0.41992238	          2.07227468	          0.54722077	         -0.15514143	          1.84425545	          0.50842232	         -0.41189110	          2.04685163	          0.13974196	         -0.08282977	          1.72706425	          0.17898709	         -0.33799818	          2.04293585	          0.14781612	         -0.12500539	          1.69372523	          0.20717037	         -0.34045586	          2.17415309	          0.04120594	         -0.17230782	          1.61130333	          0.05370576	         -0.35098359	
